<?xml version="1.0" encoding="UTF-8"?>
<svg width="77px" height="53px" viewBox="0 0 77 53" version="1.1" xmlns="http://www.w3.org/2000/svg" xmlns:xlink="http://www.w3.org/1999/xlink">
    <!-- Generator: Sketch 61.2 (89653) - https://sketch.com -->
    <title>carrito@2x</title>
    <desc>Created with Sketch.</desc>
    <g id="Page-1" stroke="none" stroke-width="1" fill="none" fill-rule="evenodd">
        <g id="carrito" fill="#418fde" fill-rule="nonzero">
            <ellipse id="Oval-5" cx="27.2317836" cy="49.0186663" rx="3.28659457" ry="3.50133329"></ellipse>
            <ellipse id="Oval-5-Copy" cx="60.0977293" cy="49.0186663" rx="3.28659457" ry="3.50133329"></ellipse>
            <path d="M74.5450129,-7.24824638e-13 C73.4375849,-7.24824638e-13 72.2680857,0.855654075 71.9262072,1.93211483 L62.589413,31.3305516 C62.2505145,32.3976291 61.070514,33.2626664 59.9546575,33.2626664 L27.3748553,33.2626664 C26.2586183,33.2626664 25.0819782,32.4070122 24.7400997,31.3305516 L15.4033054,1.93211483 C15.064407,0.865037273 13.8854574,-7.24824638e-13 12.7844998,-7.24824638e-13 L9.85978369,-7.24824638e-13 L20.6867653,33.332693 C21.442682,36.2738129 23.9733598,38.4446396 26.9970268,38.4446396 L60.332486,38.4446396 C63.3561528,38.4446396 65.8868306,36.2738129 66.6756134,33.332693 L76.8427356,1.93618244 C77.1890145,0.866858404 76.5655108,-7.24824638e-13 75.4645533,-7.24824638e-13 L74.5450129,-7.24824638e-13 Z" id="Combined-Shape"></path>
            <path d="M0,2.01553993 C0,0.902387964 0.902627471,0 2.00368379,0 L11.503081,0 L11.503081,5.25199995 L2.00368379,5.25199995 C0.89707979,5.25199995 0,4.33717137 0,3.23646003 L0,2.01553993 Z" id="Rectangle"></path>
        </g>
    </g>
</svg>