<svg xmlns="http://www.w3.org/2000/svg" width="24" height="17" viewBox="0 0 24 17">
    <g fill="#fff" fill-rule="nonzero">
        <path d="M22.118 0H8.11a.743.743 0 0 0-.522.215l-.952.954-.953-.954A.743.743 0 0 0 5.161 0H1.475C.662 0 0 .662 0 1.475v13.27c0 .813.662 1.475 1.475 1.475H5.16a.743.743 0 0 0 .522-.215l.953-.954.952.952a.738.738 0 0 0 .522.217h14.008c.813 0 1.475-.662 1.475-1.474V1.475C23.593.662 22.931 0 22.118 0zm0 15.483v-.737H8.415l-1.042-1.043v-1.907H5.898v1.907l-1.042 1.043H1.475V1.475h3.38l1.043 1.042v1.907h1.475V2.517l1.042-1.042h13.703v13.27h.002l-.002.738z"/>
        <path d="M12.534 2.95c-1.22 0-2.212.991-2.212 2.211 0 1.22.992 2.212 2.212 2.212 1.22 0 2.212-.993 2.212-2.212 0-1.22-.993-2.212-2.212-2.212zm0 2.948a.738.738 0 1 1 0-1.475.738.738 0 0 1 0 1.475zM16.957 8.847c-1.219 0-2.211.993-2.211 2.212 0 1.22.992 2.212 2.211 2.212 1.22 0 2.212-.992 2.212-2.212 0-1.22-.992-2.212-2.212-2.212zm0 2.95a.738.738 0 1 1 .001-1.476.738.738 0 0 1 0 1.475zM18.904 3.12a.739.739 0 0 0-1.04.095l-7.373 8.847a.739.739 0 1 0 1.136.944L19 4.158a.738.738 0 0 0-.096-1.038zM5.898 8.847h1.475v1.475H5.898zM5.898 5.898h1.475v1.475H5.898z"/>
    </g>
</svg>
