<?xml version="1.0" encoding="UTF-8"?>
<svg width="17px" height="20px" viewBox="0 0 17 20" version="1.1" xmlns="http://www.w3.org/2000/svg" xmlns:xlink="http://www.w3.org/1999/xlink">
    <title>1E069497-B63F-44AF-B8A0-12A7902334BF</title>
    <g id="Page-1" stroke="none" stroke-width="1" fill="none" fill-rule="evenodd">
        <g id="home_desktop_vf_2021" transform="translate(-1240.000000, -22.000000)" fill="#418FDE">
            <g id="Group-42" transform="translate(48.000000, 11.000000)">
                <g id="Location" transform="translate(1192.000000, 11.000000)">
                    <path d="M8.25,0 C12.799,0 16.5,3.729 16.5,8.313 C16.5,13.948 10.044,19.5 8.25,19.5 C6.456,19.5 0,13.948 0,8.313 C0,3.729 3.701,0 8.25,0 Z M8.25,1.5 C4.528,1.5 1.5,4.557 1.5,8.313 C1.5,13.092 7.124,17.748 8.25,17.996 C9.376,17.747 15,13.091 15,8.313 C15,4.557 11.972,1.5 8.25,1.5 Z M8.251,5 C10.043,5 11.501,6.458 11.501,8.251 C11.501,10.043 10.043,11.5 8.251,11.5 C6.459,11.5 5.001,10.043 5.001,8.251 C5.001,6.458 6.459,5 8.251,5 Z M8.251,6.5 C7.286,6.5 6.501,7.285 6.501,8.251 C6.501,9.216 7.286,10 8.251,10 C9.216,10 10.001,9.216 10.001,8.251 C10.001,7.285 9.216,6.5 8.251,6.5 Z" id="Combined-Shape"></path>
                </g>
            </g>
        </g>
    </g>
</svg>
