<svg xmlns="http://www.w3.org/2000/svg" width="31" height="21" viewBox="0 0 31 21">
    <g fill="none" fill-rule="evenodd">
        <g fill-rule="nonzero">
            <g>
                <g>
                    <path fill="#FFDA44" d="M28.42.017H2.3c-1.27 0-2.3 1.03-2.3 2.3v4.409h30.72V2.317c0-1.27-1.03-2.3-2.3-2.3z" transform="translate(-1269 -90) translate(1269 90)"/>
                    <path fill="#D80027" d="M0 17.843c0 1.27 1.03 2.3 2.3 2.3h26.12c1.27 0 2.3-1.03 2.3-2.3v-4.409H0v4.409z" transform="translate(-1269 -90) translate(1269 90)"/>
                    <path fill="#0052B4" d="M0 6.725H30.72V13.434H0z" transform="translate(-1269 -90) translate(1269 90)"/>
                    <g fill="#F5F5F5">
                        <path d="M.728 3.99l.133.398.42.003c.054 0 .076.07.033.102l-.338.25.127.4c.016.051-.043.094-.087.062l-.341-.244-.342.244C.29 5.237.23 5.194.247 5.142l.126-.4-.337-.249c-.044-.032-.021-.102.033-.102l.42-.003.132-.398c.017-.052.09-.052.107 0zM1.543 2.723l-.07.413.367.202c.048.026.035.097-.019.105l-.415.06-.077.413c-.01.053-.082.063-.107.014l-.185-.376-.416.054c-.054.006-.086-.06-.047-.097l.3-.293-.179-.379c-.023-.049.03-.1.078-.074l.37.195.306-.288c.04-.037.104-.003.094.051zM2.575 1.614l-.197.37.287.307c.037.04.002.103-.051.094L2.2 2.312l-.202.368c-.027.047-.098.034-.106-.02l-.058-.415-.412-.08c-.054-.01-.063-.082-.014-.106l.377-.184-.052-.416c-.007-.054.059-.085.096-.046l.292.301.38-.178c.049-.023.1.03.074.078zM3.816.926l-.29.304.194.372c.025.048-.025.1-.075.077l-.378-.181-.294.299c-.038.038-.103.006-.096-.047l.055-.416-.375-.188c-.049-.024-.038-.096.015-.106l.413-.075.062-.415c.008-.054.08-.067.105-.019l.2.37.414-.07c.053-.009.087.056.05.095zM5.242.607l-.36.215.087.41c.011.054-.052.09-.092.055l-.316-.276-.364.21c-.047.027-.101-.022-.08-.072l.165-.386-.311-.28C3.93.445 3.96.378 4.014.383l.417.038.171-.383c.023-.05.095-.043.107.01l.093.41.418.044c.053.005.07.077.022.104zM10.072 3.99l-.133.398-.42.003c-.054 0-.076.07-.033.102l.338.25-.127.4c-.016.051.043.094.087.062l.341-.244.341.244c.045.032.104-.011.087-.063l-.126-.4.337-.249c.044-.032.021-.102-.033-.102l-.42-.003-.132-.398c-.017-.052-.09-.052-.107 0zM9.257 2.723l.07.413-.367.202c-.048.026-.035.097.019.105l.415.06.077.413c.01.053.083.063.107.014l.185-.376.416.054c.054.006.086-.06.047-.097l-.3-.293.179-.379c.023-.049-.03-.1-.077-.074l-.372.195-.305-.288c-.04-.037-.104-.003-.094.051zM8.225 1.614l.197.37-.287.307c-.037.04-.002.103.051.094l.414-.073.202.368c.027.047.098.034.106-.02l.058-.415.412-.08c.054-.01.063-.082.014-.106l-.377-.184.052-.416c.007-.054-.059-.085-.096-.046l-.292.301-.38-.178c-.049-.023-.1.03-.074.078zM6.984.926l.29.304-.194.372c-.025.048.026.1.075.077l.378-.181.294.299c.038.038.104.006.096-.047l-.055-.416.375-.188c.049-.024.038-.096-.015-.106L7.815.965 7.753.55C7.745.496 7.673.483 7.648.53l-.2.37-.414-.07c-.053-.009-.087.056-.05.095zM5.558.607l.36.215-.087.41c-.011.054.052.09.092.055l.316-.276.364.21c.047.027.101-.022.08-.072L6.518.763l.311-.28c.04-.037.011-.104-.043-.099L6.37.422 6.198.039c-.023-.05-.095-.043-.107.01l-.093.41-.418.044c-.053.005-.07.077-.022.104z" transform="translate(-1269 -90) translate(1269 90) translate(9.96 7.38)"/>
                    </g>
                </g>
            </g>
        </g>
    </g>
</svg>
